<?xml version="1.0" standalone="no"?><!DOCTYPE svg PUBLIC "-//W3C//DTD SVG 1.1//EN" "http://www.w3.org/Graphics/SVG/1.1/DTD/svg11.dtd"><svg t="1711429227136" class="icon" viewBox="0 0 1024 1024" version="1.1" xmlns="http://www.w3.org/2000/svg" p-id="4923" width="128" height="128" xmlns:xlink="http://www.w3.org/1999/xlink"><path d="M485.135654 888.088564h53.727669V135.911436h-53.727669v752.177128z m0-770.08601h53.727669V64.274886h-53.727669v53.727668z m0 841.721537h53.727669V905.997446h-53.727669v53.726645z m-59.690474-823.812655c-68.662823 39.769772-155.217131 93.313246-155.217131 220.276892 0 126.971833 158.189835 420.686295 167.144788 513.991354 11.945053-252.404614-71.63655-403.843698-71.63655-520.103562 0-116.260887 43.285852-200.401216 59.708893-214.164684zM227.397568 386.636804s-82.531692 74.740238-74.749447 152.523789c12.452613 124.470873 197.785645 292.839535 242.943124 402.654616-34.821063-187.991582-163.506934-315.715545-174.420495-420.957471-10.896164-105.240903 6.226818-134.220934 6.226818-134.220934z m371.156229-250.725368c16.422018 13.763468 59.708893 97.904821 59.708893 214.164684 0 116.258841-83.581604 267.698948-71.636551 520.103562 8.954953-93.305059 167.144788-387.019521 167.144788-513.991354 0-126.963647-86.554308-180.50712-155.21713-220.276892z m198.047611 250.725368s17.121959 28.979008 6.226818 134.220934-139.617851 232.964866-174.420494 420.957471c45.157479-109.815081 230.474139-278.184767 242.943124-402.654616 7.782244-77.783551-74.749448-152.523789-74.749448-152.523789z" fill="#FF6666" p-id="4924"></path></svg>